<svg width="120" height="44" viewBox="0 0 120 44" fill="none" xmlns="http://www.w3.org/2000/svg">
<path d="M41.6701 10.8706L44.2583 5.69409H55.6465V32.0941C55.3877 34.9411 52.2818 38.643 49.4348 39.6C47.5804 40.2233 46.6488 40.2466 45.2936 39.6C42.5446 37.45 41.4663 35.4837 40.6348 30.5411L43.7406 27.1764C44.1521 29.2958 44.4716 30.3893 45.2936 32.0941C48.6583 37.2706 51.791 36.7529 52.2818 32.0941V10.8706H41.6701Z" fill="#2B2D2F"/>
<path d="M19.0445 19.4889C19.9912 18.3128 20.1866 17.4789 19.9623 15.9915C19.9456 15.8802 20.0219 15.7737 20.1342 15.7674C20.6227 15.7402 20.8595 15.9128 21.1862 16.265C21.211 16.2917 21.2278 16.3248 21.2345 16.3606C21.4634 17.5903 21.1369 18.907 20.2919 20.2827C20.2354 20.3748 20.115 20.4029 20.0223 20.3473L19.096 19.7916C18.9904 19.7282 18.9672 19.5849 19.0445 19.4889Z" fill="#E9773B"/>
<path d="M14.6602 17.8279L13.4524 17.4253C13.3261 17.3832 13.2757 17.2315 13.3499 17.121C14.2275 15.8131 14.6824 14.8011 14.7455 12.9021C14.7514 12.7247 14.9672 12.6348 15.0909 12.7621C15.921 13.6168 16.3665 14.3181 16.0473 15.7883C15.7809 16.8075 15.5467 17.3036 14.8341 17.8034C14.7835 17.8389 14.7188 17.8474 14.6602 17.8279Z" fill="#E9773B"/>
<path d="M4.65882 25.3647L3.36471 26.1412L0 23.0353V21.7412L11.9059 18.3765H13.2L21.2235 21.7412L18.3765 24.8471L18.1176 21.7412L13.2 19.6706L12.9412 23.0353H12.1647L11.9059 19.6706L2.58824 22.7765L4.65882 25.3647Z" fill="#2B2D2F"/>
<path d="M5.95256 44.0002H2.84668L5.69374 32.8707L12.1643 30.0237L19.1526 32.8707L20.4467 44.0002H18.8937L16.5643 33.6472L13.4584 32.3531V44.0002H10.8702L10.6114 32.3531L7.76433 33.6472L5.95256 44.0002Z" fill="#2B2D2F"/>
<path d="M6.21173 31.5765H4.91761L0.258789 27.6941L11.9058 23.8118L20.9647 27.9529L17.8588 30.8V27.9529L12.9411 25.6235L12.4235 28.9882H11.3882L10.8706 25.6235L3.36467 28.2118L6.21173 31.5765Z" fill="#2B2D2F"/>
<path d="M4.77771 19.2576L4.04196 19.8094C3.9536 19.8757 3.82823 19.8578 3.76196 19.7694L3.10549 18.8941C1.70336 16.8378 2.57968 15.2846 6.67372 12.4618C6.70909 12.4374 6.73707 12.4013 6.75006 12.3603C7.07814 11.3259 6.68322 10.5634 6.28977 9.31502C6.24958 9.18751 6.34553 9.05884 6.47922 9.05884H6.88274C6.94854 9.05884 7.0103 9.09093 7.0464 9.14594C7.97386 10.5591 8.26235 12.6249 7.78809 13.1742C7.77268 13.1921 7.75268 13.2053 7.73129 13.2152C4.46852 14.732 3.66256 16.7397 4.83436 18.9986C4.88038 19.0874 4.85767 19.1976 4.77771 19.2576Z" fill="#E9773B"/>
<path d="M7.68313 18.9509L6.59437 19.1323C6.51874 19.1449 6.44164 19.1121 6.39785 19.0492C4.82822 16.793 4.97517 15.6524 7.506 13.9765C9.94919 12.0961 9.69758 10.6138 7.51478 7.51833C7.50905 7.5102 7.50364 7.50121 7.4992 7.49231C7.06929 6.63098 7.10892 6.18373 7.506 5.43529C9.28618 2.76299 10.7402 1.482 14.6568 0.121327C14.8079 0.0688387 14.9557 0.207849 14.9166 0.362923C14.3598 2.56779 14.3683 4.20489 15.0051 5.93431C15.0097 5.94665 15.0157 5.95891 15.0226 5.9701C17.1142 9.36462 18.0033 10.4343 18.3766 11.9059C19.2183 14.6351 19.0366 16.2851 18.1895 19.1698C18.1532 19.2933 18.0109 19.3507 17.8991 19.2868L16.4931 18.4834C16.3921 18.4257 16.3615 18.2948 16.4208 18.1948C17.2694 16.7628 17.5651 14.2048 16.834 12.9584C16.8272 12.9468 16.8189 12.9358 16.8098 12.9259C13.409 9.21178 13.3585 7.48362 13.2108 2.43544L13.2084 2.35242C13.2044 2.21542 13.0663 2.12064 12.9387 2.17065C10.0685 3.29552 9.47052 4.44583 9.5747 6.94453C9.57588 6.97292 9.58339 7.00166 9.59624 7.027C10.967 9.73152 11.8861 11.6195 11.1498 12.9068C11.1368 12.9295 11.1183 12.9496 11.0974 12.9652C8.77052 14.6947 7.84112 15.3633 7.26862 16.2715C7.25436 16.2941 7.24497 16.3199 7.24108 16.3464C7.09245 17.3561 7.26441 17.8985 7.80975 18.6228C7.9022 18.7455 7.83473 18.9256 7.68313 18.9509Z" fill="#E9773B"/>
<path d="M11.12 17.859H9.46291C9.37622 17.859 9.29897 17.8025 9.27328 17.7197C8.64912 15.7081 8.99037 14.7206 11.3881 13.459C12.8548 12.7317 12.7151 11.6173 10.887 8.3125C10.8763 8.29306 10.8684 8.27068 10.8646 8.24879C10.517 6.24145 10.746 5.38113 11.4698 4.68746C11.6236 4.54001 11.8831 4.75128 11.8372 4.95937C11.5487 6.2661 12.309 7.78918 14.2188 10.588C14.2295 10.6036 14.2382 10.6213 14.2441 10.6393C14.5418 11.5616 14.5328 12.121 14.2476 13.1555C14.2395 13.1847 14.2243 13.2124 14.2042 13.2351C13.0159 14.5732 12.4082 15.0367 11.4544 15.4978C11.4118 15.5184 11.3772 15.5532 11.3585 15.5967C11.0766 16.2515 11.0802 16.7413 11.3144 17.601C11.3495 17.73 11.2538 17.859 11.12 17.859Z" fill="#FF9900"/>
<path fill-rule="evenodd" clip-rule="evenodd" d="M25.623 39.794V8.08084C25.623 8.04338 25.6337 8.00634 25.6537 7.97464C26.3159 6.92294 26.8457 6.37891 28.4516 5.70191C28.4637 5.6968 28.4768 5.69275 28.4897 5.69014C30.1606 5.35204 31.2612 5.35212 33.3717 5.69153C33.3823 5.69322 33.3931 5.69587 33.4032 5.69922C37.596 7.08884 39.2762 8.79448 40.1172 14.7529C40.2515 16.0942 40.309 16.8833 40.1172 18.8941C38.3655 26.2415 35.5299 28.9215 29.9754 28.7377C29.8614 28.7339 29.7642 28.8247 29.7642 28.9387V37.9234C29.7642 37.9992 29.7214 38.0685 29.6537 38.1023L25.9125 39.9729C25.7795 40.0394 25.623 39.9427 25.623 39.794ZM29.5056 11.3294V21.3941C29.5056 21.4503 29.5304 21.5051 29.572 21.5429C33.7073 25.3056 35.4989 25.7641 37.0031 21.5061C37.0085 21.4908 37.0122 21.474 37.0138 21.4578C37.5242 16.0434 36.177 11.8696 32.3714 11.133C32.3591 11.1306 32.3463 11.1294 32.3338 11.1294H29.7056C29.5951 11.1294 29.5056 11.219 29.5056 11.3294Z" fill="#2B2D2F"/>
<path d="M62.2891 5.30591V38.6941" stroke="#2B2D2F" stroke-linecap="round"/>
<path d="M69.2989 14.2214V5.92994H71.024V14.2214H69.2989Z" fill="#2B2D2F"/>
<path d="M72.3718 14.2214V8.14469H73.93V9.34667L73.8409 9.07956C73.9819 8.716 74.2082 8.4489 74.5198 8.27825C74.8389 8.10017 75.2098 8.01114 75.6328 8.01114C76.0928 8.01114 76.4934 8.10759 76.8347 8.3005C77.1835 8.49341 77.4543 8.76423 77.6472 9.11295C77.8401 9.45425 77.9366 9.85491 77.9366 10.3149V14.2214H76.2671V10.6711C76.2671 10.4336 76.2189 10.2296 76.1225 10.059C76.0334 9.8883 75.9036 9.75475 75.7329 9.65829C75.5697 9.56184 75.3768 9.51361 75.1542 9.51361C74.939 9.51361 74.7461 9.56184 74.5755 9.65829C74.4048 9.75475 74.2713 9.8883 74.1748 10.059C74.0858 10.2296 74.0413 10.4336 74.0413 10.6711V14.2214H72.3718Z" fill="#2B2D2F"/>
<path d="M79.7688 14.2214V9.59152H78.7449V8.14469H79.7688V8.05566C79.7688 7.57338 79.8616 7.1653 80.0471 6.83142C80.24 6.49754 80.5145 6.24156 80.8706 6.06349C81.2268 5.88542 81.6571 5.79639 82.1616 5.79639C82.2581 5.79639 82.362 5.80381 82.4733 5.81865C82.5846 5.82607 82.6773 5.83719 82.7515 5.85203V7.2766C82.6773 7.26176 82.6105 7.25434 82.5512 7.25434C82.4992 7.24692 82.4436 7.24321 82.3842 7.24321C82.0726 7.24321 81.8352 7.3137 81.6719 7.45467C81.5161 7.58822 81.4382 7.78855 81.4382 8.05566V8.14469H82.7404V9.59152H81.4382V14.2214H79.7688Z" fill="#2B2D2F"/>
<path d="M86.4956 14.3549C85.8946 14.3549 85.3456 14.2176 84.8484 13.9431C84.3587 13.6686 83.9655 13.2939 83.6687 12.819C83.3794 12.3368 83.2347 11.7914 83.2347 11.183C83.2347 10.5672 83.3794 10.0219 83.6687 9.547C83.9655 9.07214 84.3587 8.69745 84.8484 8.42293C85.3456 8.1484 85.8946 8.01114 86.4956 8.01114C87.0966 8.01114 87.6419 8.1484 88.1316 8.42293C88.6213 8.69745 89.0108 9.07214 89.3002 9.547C89.597 10.0219 89.7454 10.5672 89.7454 11.183C89.7454 11.7914 89.597 12.3368 89.3002 12.819C89.0108 13.2939 88.6213 13.6686 88.1316 13.9431C87.6419 14.2176 87.0966 14.3549 86.4956 14.3549ZM86.4956 12.8524C86.7998 12.8524 87.0632 12.7819 87.2858 12.641C87.5158 12.5 87.6939 12.3034 87.82 12.0511C87.9535 11.7989 88.0203 11.5095 88.0203 11.183C88.0203 10.8566 87.9535 10.5709 87.82 10.3261C87.6939 10.0738 87.5158 9.87717 87.2858 9.7362C87.0632 9.58781 86.7998 9.51361 86.4956 9.51361C86.1914 9.51361 85.9243 9.58781 85.6943 9.7362C85.4643 9.87717 85.2825 10.0738 85.1489 10.3261C85.0228 10.5709 84.9597 10.8566 84.9597 11.183C84.9597 11.5095 85.0228 11.7989 85.1489 12.0511C85.2825 12.3034 85.4643 12.5 85.6943 12.641C85.9243 12.7819 86.1914 12.8524 86.4956 12.8524Z" fill="#2B2D2F"/>
<path d="M90.7289 14.2214V8.14469H92.287V9.60265L92.1757 9.39119C92.3092 8.87923 92.5281 8.53422 92.8323 8.35615C93.1439 8.17066 93.5112 8.07792 93.9341 8.07792H94.2903V9.52474H93.7672C93.3591 9.52474 93.0289 9.65087 92.7767 9.90314C92.5244 10.148 92.3983 10.4967 92.3983 10.9493V14.2214H90.7289Z" fill="#2B2D2F"/>
<path d="M95.0219 14.2214V8.14469H96.5801V9.6249L96.4131 9.38006C96.5021 8.91262 96.7173 8.56761 97.0586 8.34502C97.3999 8.12243 97.808 8.01114 98.2829 8.01114C98.7874 8.01114 99.2289 8.14098 99.6073 8.40067C99.9931 8.65294 100.234 8.99424 100.331 9.42458L99.8521 9.46909C100.052 8.97198 100.338 8.60471 100.709 8.36728C101.08 8.12985 101.514 8.01114 102.011 8.01114C102.449 8.01114 102.835 8.10759 103.169 8.3005C103.51 8.49341 103.777 8.76423 103.97 9.11295C104.163 9.45425 104.259 9.85491 104.259 10.3149V14.2214H102.59V10.6711C102.59 10.4336 102.545 10.2296 102.456 10.059C102.375 9.8883 102.256 9.75475 102.1 9.65829C101.944 9.56184 101.755 9.51361 101.533 9.51361C101.317 9.51361 101.128 9.56184 100.965 9.65829C100.809 9.75475 100.687 9.8883 100.598 10.059C100.516 10.2296 100.475 10.4336 100.475 10.6711V14.2214H98.8059V10.6711C98.8059 10.4336 98.7614 10.2296 98.6724 10.059C98.5908 9.8883 98.4721 9.75475 98.3162 9.65829C98.1604 9.56184 97.9712 9.51361 97.7486 9.51361C97.5335 9.51361 97.3443 9.56184 97.181 9.65829C97.0252 9.75475 96.9028 9.8883 96.8138 10.059C96.7322 10.2296 96.6913 10.4336 96.6913 10.6711V14.2214H95.0219Z" fill="#2B2D2F"/>
<path d="M107.239 14.3549C106.801 14.3549 106.423 14.2844 106.104 14.1434C105.785 14.0025 105.54 13.8021 105.369 13.5425C105.198 13.2754 105.113 12.96 105.113 12.5965C105.113 12.2552 105.191 11.9547 105.347 11.695C105.503 11.4279 105.74 11.2053 106.059 11.0272C106.386 10.8491 106.79 10.723 107.272 10.6488L109.131 10.3483V11.5726L107.573 11.8508C107.335 11.8953 107.153 11.9732 107.027 12.0845C106.901 12.1884 106.838 12.3405 106.838 12.5408C106.838 12.7263 106.909 12.871 107.05 12.9749C107.191 13.0787 107.365 13.1307 107.573 13.1307C107.847 13.1307 108.088 13.0713 108.296 12.9526C108.504 12.8339 108.663 12.6744 108.775 12.474C108.893 12.2663 108.953 12.04 108.953 11.7951V10.2148C108.953 9.98476 108.86 9.79185 108.675 9.63603C108.496 9.48022 108.252 9.40232 107.94 9.40232C107.643 9.40232 107.38 9.48393 107.15 9.64716C106.927 9.81039 106.764 10.0256 106.66 10.2927L105.325 9.65829C105.443 9.31699 105.632 9.02392 105.892 8.77907C106.152 8.53422 106.463 8.34502 106.827 8.21147C107.191 8.07792 107.588 8.01114 108.018 8.01114C108.53 8.01114 108.982 8.10388 109.376 8.28937C109.769 8.47487 110.073 8.73455 110.288 9.06843C110.511 9.3949 110.622 9.77701 110.622 10.2148V14.2214H109.064V13.242L109.442 13.1752C109.264 13.4423 109.068 13.6649 108.853 13.843C108.637 14.0136 108.396 14.1397 108.129 14.2214C107.862 14.3104 107.565 14.3549 107.239 14.3549Z" fill="#2B2D2F"/>
<path d="M114.228 14.3549C113.56 14.3549 112.978 14.1991 112.481 13.8875C111.991 13.5684 111.657 13.1418 111.479 12.6076L112.703 12.0289C112.859 12.3553 113.071 12.6113 113.338 12.7968C113.605 12.9823 113.902 13.075 114.228 13.075C114.466 13.075 114.647 13.0268 114.774 12.9303C114.9 12.8339 114.963 12.7003 114.963 12.5297C114.963 12.4406 114.94 12.3665 114.896 12.3071C114.851 12.2403 114.785 12.181 114.696 12.129C114.607 12.0771 114.495 12.0326 114.362 11.9955L113.327 11.7061C112.83 11.5651 112.447 11.3388 112.18 11.0272C111.913 10.7082 111.78 10.3335 111.78 9.90314C111.78 9.52474 111.876 9.19457 112.069 8.91262C112.262 8.63068 112.533 8.4118 112.882 8.25599C113.23 8.09276 113.631 8.01114 114.083 8.01114C114.677 8.01114 115.196 8.15211 115.642 8.43406C116.094 8.70858 116.413 9.09811 116.599 9.60265L115.363 10.1814C115.274 9.92911 115.111 9.72878 114.874 9.58039C114.644 9.42458 114.38 9.34667 114.083 9.34667C113.868 9.34667 113.698 9.39119 113.572 9.48022C113.453 9.56926 113.393 9.69168 113.393 9.84749C113.393 9.92911 113.416 10.0033 113.46 10.0701C113.505 10.1369 113.575 10.1962 113.672 10.2482C113.776 10.3001 113.902 10.3483 114.05 10.3928L115.018 10.6822C115.523 10.8306 115.909 11.0569 116.176 11.3611C116.443 11.6579 116.576 12.0251 116.576 12.4629C116.576 12.8413 116.476 13.1715 116.276 13.4534C116.083 13.7354 115.812 13.958 115.464 14.1212C115.115 14.277 114.703 14.3549 114.228 14.3549Z" fill="#2B2D2F"/>
<path d="M117.574 14.2214V8.14469H119.244V14.2214H117.574ZM117.574 7.59935V5.92994H119.244V7.59935H117.574Z" fill="#2B2D2F"/>
<path d="M69.2989 26.1457V17.8543H72.4819C73.0532 17.8543 73.5578 17.9545 73.9955 18.1548C74.4407 18.3551 74.7894 18.6519 75.0417 19.0452C75.294 19.4384 75.4201 19.9244 75.4201 20.5031C75.4201 21.067 75.2902 21.5456 75.0306 21.9388C74.7783 22.332 74.4296 22.6325 73.9844 22.8403C73.5466 23.0406 73.0458 23.1408 72.4819 23.1408H71.024V26.1457H69.2989ZM71.024 21.6383H72.4931C72.7379 21.6383 72.9494 21.5901 73.1274 21.4936C73.3055 21.3972 73.4428 21.2636 73.5392 21.093C73.6431 20.9223 73.695 20.7257 73.695 20.5031C73.695 20.2731 73.6431 20.0728 73.5392 19.9021C73.4428 19.7315 73.3055 19.5979 73.1274 19.5015C72.9494 19.405 72.7379 19.3568 72.4931 19.3568H71.024V21.6383Z" fill="#2B2D2F"/>
<path d="M77.948 26.2793C77.5103 26.2793 77.1319 26.2088 76.8128 26.0678C76.4938 25.9268 76.2489 25.7265 76.0783 25.4668C75.9076 25.1997 75.8223 24.8844 75.8223 24.5208C75.8223 24.1795 75.9002 23.879 76.056 23.6193C76.2118 23.3522 76.4493 23.1297 76.7683 22.9516C77.0948 22.7735 77.4991 22.6474 77.9814 22.5732L79.84 22.2727V23.4969L78.2819 23.7752C78.0445 23.8197 77.8627 23.8976 77.7366 24.0089C77.6104 24.1127 77.5474 24.2649 77.5474 24.4652C77.5474 24.6507 77.6179 24.7954 77.7588 24.8992C77.8998 25.0031 78.0742 25.055 78.2819 25.055C78.5564 25.055 78.7976 24.9957 79.0053 24.877C79.2131 24.7583 79.3726 24.5987 79.4839 24.3984C79.6026 24.1907 79.662 23.9644 79.662 23.7195V22.1391C79.662 21.9091 79.5692 21.7162 79.3837 21.5604C79.2057 21.4046 78.9608 21.3267 78.6492 21.3267C78.3524 21.3267 78.089 21.4083 77.859 21.5715C77.6364 21.7348 77.4732 21.9499 77.3693 22.217L76.0338 21.5827C76.1525 21.2414 76.3417 20.9483 76.6014 20.7034C76.8611 20.4586 77.1727 20.2694 77.5362 20.1358C77.8998 20.0023 78.2968 19.9355 78.7271 19.9355C79.239 19.9355 79.6916 20.0283 80.0849 20.2137C80.4781 20.3992 80.7823 20.6589 80.9975 20.9928C81.2201 21.3193 81.3314 21.7014 81.3314 22.1391V26.1457H79.7733V25.1663L80.1517 25.0996C79.9736 25.3667 79.777 25.5893 79.5618 25.7673C79.3466 25.938 79.1055 26.0641 78.8384 26.1457C78.5713 26.2348 78.2745 26.2793 77.948 26.2793Z" fill="#2B2D2F"/>
<path d="M82.5557 26.1457V20.0691H84.1138V21.271L84.0248 21.0039C84.1657 20.6404 84.392 20.3733 84.7037 20.2026C85.0227 20.0245 85.3937 19.9355 85.8166 19.9355C86.2766 19.9355 86.6773 20.032 87.0186 20.2249C87.3673 20.4178 87.6381 20.6886 87.831 21.0373C88.0239 21.3786 88.1204 21.7793 88.1204 22.2393V26.1457H86.451V22.5954C86.451 22.358 86.4028 22.154 86.3063 21.9833C86.2173 21.8127 86.0874 21.6791 85.9168 21.5827C85.7535 21.4862 85.5606 21.438 85.338 21.438C85.1229 21.438 84.93 21.4862 84.7593 21.5827C84.5887 21.6791 84.4551 21.8127 84.3587 21.9833C84.2696 22.154 84.2251 22.358 84.2251 22.5954V26.1457H82.5557Z" fill="#2B2D2F"/>
<path d="M92.2008 28.5942C91.7334 28.5942 91.2993 28.5163 90.8987 28.3605C90.498 28.2047 90.153 27.9858 89.8636 27.7038C89.5817 27.4293 89.3776 27.1029 89.2515 26.7245L90.7985 26.1791C90.8801 26.4611 91.0471 26.6836 91.2993 26.8469C91.5516 27.0101 91.8521 27.0917 92.2008 27.0917C92.4753 27.0917 92.7128 27.0398 92.9131 26.9359C93.1134 26.8395 93.2655 26.6948 93.3694 26.5019C93.4807 26.309 93.5363 26.0827 93.5363 25.823V24.4318L93.8591 24.8325C93.6513 25.1738 93.3842 25.4297 93.0578 25.6004C92.7313 25.7636 92.3492 25.8452 91.9114 25.8452C91.3475 25.8452 90.843 25.7191 90.3978 25.4668C89.9527 25.2071 89.6039 24.8547 89.3517 24.4095C89.0994 23.9569 88.9733 23.445 88.9733 22.8737C88.9733 22.3024 89.0994 21.7978 89.3517 21.3601C89.6039 20.9149 89.949 20.5662 90.3867 20.3139C90.8245 20.0616 91.3216 19.9355 91.878 19.9355C92.3158 19.9355 92.6979 20.0245 93.0244 20.2026C93.3508 20.3733 93.6291 20.6367 93.8591 20.9928L93.6476 21.3935V20.0691H95.2057V25.823C95.2057 26.3572 95.0759 26.832 94.8162 27.2475C94.5565 27.6705 94.2004 28.0006 93.7478 28.2381C93.3026 28.4755 92.787 28.5942 92.2008 28.5942ZM92.1452 24.3316C92.4271 24.3316 92.6719 24.2723 92.8797 24.1536C93.0874 24.0348 93.247 23.8679 93.3583 23.6527C93.477 23.4376 93.5363 23.1853 93.5363 22.8959C93.5363 22.6066 93.477 22.3543 93.3583 22.1391C93.2395 21.9165 93.0763 21.7459 92.8686 21.6272C92.6608 21.501 92.4197 21.438 92.1452 21.438C91.8632 21.438 91.6109 21.501 91.3884 21.6272C91.1732 21.7459 91.0025 21.9165 90.8764 22.1391C90.7577 22.3543 90.6983 22.6066 90.6983 22.8959C90.6983 23.1779 90.7577 23.4264 90.8764 23.6416C91.0025 23.8568 91.1732 24.0274 91.3884 24.1536C91.6109 24.2723 91.8632 24.3316 92.1452 24.3316Z" fill="#2B2D2F"/>
<path d="M98.3157 26.2793C97.878 26.2793 97.4996 26.2088 97.1805 26.0678C96.8615 25.9268 96.6166 25.7265 96.446 25.4668C96.2753 25.1997 96.19 24.8844 96.19 24.5208C96.19 24.1795 96.2679 23.879 96.4237 23.6193C96.5795 23.3522 96.817 23.1297 97.136 22.9516C97.4625 22.7735 97.8668 22.6474 98.3491 22.5732L100.208 22.2727V23.4969L98.6496 23.7752C98.4122 23.8197 98.2304 23.8976 98.1043 24.0089C97.9781 24.1127 97.9151 24.2649 97.9151 24.4652C97.9151 24.6507 97.9855 24.7954 98.1265 24.8992C98.2675 25.0031 98.4419 25.055 98.6496 25.055C98.9241 25.055 99.1653 24.9957 99.373 24.877C99.5808 24.7583 99.7403 24.5987 99.8516 24.3984C99.9703 24.1907 100.03 23.9644 100.03 23.7195V22.1391C100.03 21.9091 99.9369 21.7162 99.7514 21.5604C99.5733 21.4046 99.3285 21.3267 99.0169 21.3267C98.7201 21.3267 98.4567 21.4083 98.2267 21.5715C98.0041 21.7348 97.8409 21.9499 97.737 22.217L96.4015 21.5827C96.5202 21.2414 96.7094 20.9483 96.9691 20.7034C97.2287 20.4586 97.5404 20.2694 97.9039 20.1358C98.2675 20.0023 98.6644 19.9355 99.0948 19.9355C99.6067 19.9355 100.059 20.0283 100.453 20.2137C100.846 20.3992 101.15 20.6589 101.365 20.9928C101.588 21.3193 101.699 21.7014 101.699 22.1391V26.1457H100.141V25.1663L100.519 25.0996C100.341 25.3667 100.145 25.5893 99.9295 25.7673C99.7143 25.938 99.4732 26.0641 99.2061 26.1457C98.939 26.2348 98.6422 26.2793 98.3157 26.2793Z" fill="#2B2D2F"/>
<path d="M102.923 26.1457V20.0691H104.481V21.271L104.392 21.0039C104.533 20.6404 104.76 20.3733 105.071 20.2026C105.39 20.0245 105.761 19.9355 106.184 19.9355C106.644 19.9355 107.045 20.032 107.386 20.2249C107.735 20.4178 108.006 20.6886 108.199 21.0373C108.392 21.3786 108.488 21.7793 108.488 22.2393V26.1457H106.819V22.5954C106.819 22.358 106.77 22.154 106.674 21.9833C106.585 21.8127 106.455 21.6791 106.284 21.5827C106.121 21.4862 105.928 21.438 105.706 21.438C105.491 21.438 105.298 21.4862 105.127 21.5827C104.956 21.6791 104.823 21.8127 104.726 21.9833C104.637 22.154 104.593 22.358 104.593 22.5954V26.1457H102.923Z" fill="#2B2D2F"/>
<path d="M68.9316 38.0701V36.512H69.4325C69.7663 36.512 70.0335 36.4192 70.2338 36.2337C70.4415 36.0408 70.5454 35.7886 70.5454 35.4769V29.7787H72.2705V35.399C72.2705 35.9332 72.1555 36.4007 71.9255 36.8013C71.6954 37.202 71.3653 37.5136 70.9349 37.7362C70.512 37.9588 70.0112 38.0701 69.4325 38.0701H68.9316Z" fill="#2B2D2F"/>
<path d="M75.47 38.2036C75.0322 38.2036 74.6538 38.1332 74.3348 37.9922C74.0158 37.8512 73.7709 37.6509 73.6003 37.3912C73.4296 37.1241 73.3443 36.8088 73.3443 36.4452C73.3443 36.1039 73.4222 35.8034 73.578 35.5437C73.7338 35.2766 73.9712 35.054 74.2903 34.876C74.6167 34.6979 75.0211 34.5717 75.5034 34.4975L77.362 34.1971V35.4213L75.8039 35.6995C75.5665 35.744 75.3847 35.822 75.2585 35.9332C75.1324 36.0371 75.0693 36.1892 75.0693 36.3896C75.0693 36.575 75.1398 36.7197 75.2808 36.8236C75.4218 36.9275 75.5961 36.9794 75.8039 36.9794C76.0784 36.9794 76.3195 36.9201 76.5273 36.8013C76.735 36.6826 76.8946 36.5231 77.0059 36.3228C77.1246 36.115 77.1839 35.8887 77.1839 35.6439V34.0635C77.1839 33.8335 77.0912 33.6406 76.9057 33.4848C76.7276 33.329 76.4828 33.2511 76.1711 33.2511C75.8744 33.2511 75.611 33.3327 75.381 33.4959C75.1584 33.6591 74.9951 33.8743 74.8913 34.1414L73.5557 33.507C73.6745 33.1657 73.8637 32.8727 74.1233 32.6278C74.383 32.383 74.6946 32.1938 75.0582 32.0602C75.4218 31.9267 75.8187 31.8599 76.2491 31.8599C76.761 31.8599 77.2136 31.9526 77.6068 32.1381C78.0001 32.3236 78.3043 32.5833 78.5195 32.9172C78.742 33.2436 78.8533 33.6257 78.8533 34.0635V38.0701H77.2952V37.0907L77.6736 37.0239C77.4955 37.291 77.2989 37.5136 77.0838 37.6917C76.8686 37.8623 76.6275 37.9885 76.3603 38.0701C76.0932 38.1591 75.7965 38.2036 75.47 38.2036Z" fill="#2B2D2F"/>
<path d="M80.0777 38.0701V29.6451H81.7471V35.0429L81.1238 34.8426L83.806 31.9934H85.865L83.6613 34.4419L85.8538 38.0701H83.9618L82.1255 34.9872L83.0937 34.7424L81.2351 36.768L81.7471 35.7997V38.0701H80.0777Z" fill="#2B2D2F"/>
<path d="M88.4797 38.2036C88.0419 38.2036 87.6635 38.1332 87.3445 37.9922C87.0254 37.8512 86.7806 37.6509 86.6099 37.3912C86.4393 37.1241 86.354 36.8088 86.354 36.4452C86.354 36.1039 86.4319 35.8034 86.5877 35.5437C86.7435 35.2766 86.9809 35.054 87.3 34.876C87.6264 34.6979 88.0308 34.5717 88.5131 34.4975L90.3717 34.1971V35.4213L88.8136 35.6995C88.5761 35.744 88.3943 35.822 88.2682 35.9332C88.1421 36.0371 88.079 36.1892 88.079 36.3896C88.079 36.575 88.1495 36.7197 88.2905 36.8236C88.4314 36.9275 88.6058 36.9794 88.8136 36.9794C89.0881 36.9794 89.3292 36.9201 89.537 36.8013C89.7447 36.6826 89.9042 36.5231 90.0155 36.3228C90.1342 36.115 90.1936 35.8887 90.1936 35.6439V34.0635C90.1936 33.8335 90.1009 33.6406 89.9154 33.4848C89.7373 33.329 89.4924 33.2511 89.1808 33.2511C88.884 33.2511 88.6206 33.3327 88.3906 33.4959C88.168 33.6591 88.0048 33.8743 87.9009 34.1414L86.5654 33.507C86.6841 33.1657 86.8733 32.8727 87.133 32.6278C87.3927 32.383 87.7043 32.1938 88.0679 32.0602C88.4314 31.9267 88.8284 31.8599 89.2587 31.8599C89.7707 31.8599 90.2233 31.9526 90.6165 32.1381C91.0098 32.3236 91.314 32.5833 91.5291 32.9172C91.7517 33.2436 91.863 33.6257 91.863 34.0635V38.0701H90.3049V37.0907L90.6833 37.0239C90.5052 37.291 90.3086 37.5136 90.0934 37.6917C89.8783 37.8623 89.6371 37.9885 89.37 38.0701C89.1029 38.1591 88.8061 38.2036 88.4797 38.2036Z" fill="#2B2D2F"/>
<path d="M93.0873 38.0701V31.9934H94.6455V33.4514L94.5342 33.2399C94.6677 32.728 94.8866 32.383 95.1908 32.2049C95.5024 32.0194 95.8697 31.9267 96.2926 31.9267H96.6487V33.3735H96.1257C95.7176 33.3735 95.3874 33.4996 95.1351 33.7519C94.8829 33.9967 94.7567 34.3454 94.7567 34.798V38.0701H93.0873Z" fill="#2B2D2F"/>
<path d="M100.525 38.1369C99.7903 38.1369 99.219 37.9403 98.8109 37.547C98.4102 37.1464 98.2099 36.5899 98.2099 35.8776V33.4403H97.186V31.9934H97.2416C97.5533 31.9934 97.7907 31.9155 97.9539 31.7597C98.1246 31.6039 98.2099 31.3702 98.2099 31.0586V30.6134H99.8793V31.9934H101.304V33.4403H99.8793V35.7663C99.8793 35.9741 99.9164 36.1484 99.9906 36.2894C100.065 36.4229 100.18 36.5231 100.336 36.5899C100.491 36.6567 100.684 36.69 100.914 36.69C100.966 36.69 101.026 36.6863 101.092 36.6789C101.159 36.6715 101.23 36.6641 101.304 36.6567V38.0701C101.193 38.0849 101.066 38.0998 100.925 38.1146C100.785 38.1294 100.651 38.1369 100.525 38.1369Z" fill="#2B2D2F"/>
<path d="M104.163 38.2036C103.725 38.2036 103.347 38.1332 103.028 37.9922C102.709 37.8512 102.464 37.6509 102.293 37.3912C102.123 37.1241 102.037 36.8088 102.037 36.4452C102.037 36.1039 102.115 35.8034 102.271 35.5437C102.427 35.2766 102.664 35.054 102.983 34.876C103.31 34.6979 103.714 34.5717 104.196 34.4975L106.055 34.1971V35.4213L104.497 35.6995C104.259 35.744 104.078 35.822 103.952 35.9332C103.825 36.0371 103.762 36.1892 103.762 36.3896C103.762 36.575 103.833 36.7197 103.974 36.8236C104.115 36.9275 104.289 36.9794 104.497 36.9794C104.771 36.9794 105.013 36.9201 105.22 36.8013C105.428 36.6826 105.588 36.5231 105.699 36.3228C105.818 36.115 105.877 35.8887 105.877 35.6439V34.0635C105.877 33.8335 105.784 33.6406 105.599 33.4848C105.421 33.329 105.176 33.2511 104.864 33.2511C104.567 33.2511 104.304 33.3327 104.074 33.4959C103.851 33.6591 103.688 33.8743 103.584 34.1414L102.249 33.507C102.367 33.1657 102.557 32.8727 102.816 32.6278C103.076 32.383 103.388 32.1938 103.751 32.0602C104.115 31.9267 104.512 31.8599 104.942 31.8599C105.454 31.8599 105.907 31.9526 106.3 32.1381C106.693 32.3236 106.997 32.5833 107.212 32.9172C107.435 33.2436 107.546 33.6257 107.546 34.0635V38.0701H105.988V37.0907L106.367 37.0239C106.189 37.291 105.992 37.5136 105.777 37.6917C105.562 37.8623 105.32 37.9885 105.053 38.0701C104.786 38.1591 104.489 38.2036 104.163 38.2036Z" fill="#2B2D2F"/>
</svg>
